<svg xmlns="http://www.w3.org/2000/svg" width="14" height="14" viewBox="0 0 14 14"><defs><clipPath id="clip-path"><path id="Rectangle_260" fill="none" stroke="#2a834d" stroke-width="1" d="M0 0h14v14H0z" data-name="Rectangle 260"/></clipPath></defs><g id="list-icon" clip-path="url(#clip-path)"><g id="list-icon-2" fill="none" stroke="#2a834d" stroke-width=".996" data-name="list-icon" transform="translate(.498 .524)"><path id="Path_3" d="M12.539 29.852a.4.4 0 0 0-.393.394v4.334a1.377 1.377 0 0 1-1.375 1.377H2.16A1.377 1.377 0 0 1 .785 34.58v-8.626a1.377 1.377 0 0 1 1.375-1.377h5.622a.394.394 0 1 0 0-.787H2.16A2.164 2.164 0 0 0 0 25.954v8.626a2.164 2.164 0 0 0 2.16 2.163h8.611a2.164 2.164 0 0 0 2.16-2.163v-4.334a.393.393 0 0 0-.393-.394Z" data-name="Path 3" transform="translate(0 -23.79)"/><path id="Path_4" d="M96.544 11.53a.34.34 0 0 0-.48 0l-6.827 6.826-1.706-1.706a.34.34 0 0 0-.48.48L89 19.076a.34.34 0 0 0 .48 0l7.067-7.066a.34.34 0 0 0 0-.48Z" data-name="Path 4" transform="translate(-83.691 -10.789)"/></g></g></svg>